<svg width="17" height="17" viewBox="0 0 17 17" fill="none" xmlns="http://www.w3.org/2000/svg">
<g clip-path="url(#clip0_136_1981)">
<path d="M7.83268 6.5013H9.16602V4.5013H11.166V3.16797H9.16602V1.16797H7.83268V3.16797H5.83268V4.5013H7.83268V6.5013ZM5.16602 12.5013C4.42935 12.5013 3.83935 13.098 3.83935 13.8346C3.83935 14.5713 4.42935 15.168 5.16602 15.168C5.90268 15.168 6.49935 14.5713 6.49935 13.8346C6.49935 13.098 5.90268 12.5013 5.16602 12.5013ZM11.8327 12.5013C11.096 12.5013 10.506 13.098 10.506 13.8346C10.506 14.5713 11.096 15.168 11.8327 15.168C12.5693 15.168 13.166 14.5713 13.166 13.8346C13.166 13.098 12.5693 12.5013 11.8327 12.5013ZM5.28268 10.3346C5.28268 10.3046 5.28935 10.278 5.30268 10.2546L5.90268 9.16797H10.8693C11.3693 9.16797 11.806 8.8913 12.036 8.4813L14.6093 3.80797L13.4427 3.16797H13.4393L12.7027 4.5013L10.866 7.83464H6.18935L6.10268 7.65464L4.60602 4.5013L3.97268 3.16797L3.34268 1.83464H1.16602V3.16797H2.49935L4.89935 8.22464L3.99602 9.85797C3.89268 10.0513 3.83268 10.268 3.83268 10.5013C3.83268 11.238 4.42935 11.8346 5.16602 11.8346H13.166V10.5013H5.44935C5.35602 10.5013 5.28268 10.428 5.28268 10.3346Z" fill="white"/>
</g>
<defs>
<clipPath id="clip0_136_1981">
<rect width="16" height="16" fill="white" transform="translate(0.5 0.5)"/>
</clipPath>
</defs>
</svg>
