<svg width="17" height="17" viewBox="0 0 17 17" fill="none" xmlns="http://www.w3.org/2000/svg">
<g clip-path="url(#clip0_136_1968)">
<path d="M8.16602 15.6099C7.93823 15.6099 7.71863 15.5273 7.54749 15.3774C6.90112 14.8123 6.27795 14.2811 5.72815 13.8126L5.72534 13.8102C4.1134 12.4365 2.72144 11.2502 1.75293 10.0817C0.670288 8.77527 0.166016 7.53662 0.166016 6.18347C0.166016 4.86877 0.616821 3.65588 1.4353 2.76807C2.26355 1.86975 3.40002 1.375 4.63574 1.375C5.55933 1.375 6.40515 1.66699 7.14966 2.2428C7.52539 2.53345 7.86597 2.88916 8.16602 3.30408C8.46619 2.88916 8.80664 2.53345 9.1825 2.2428C9.927 1.66699 10.7728 1.375 11.6964 1.375C12.932 1.375 14.0686 1.86975 14.8969 2.76807C15.7153 3.65588 16.166 4.86877 16.166 6.18347C16.166 7.53662 15.6619 8.77527 14.5792 10.0815C13.6107 11.2502 12.2189 12.4364 10.6072 13.8099C10.0564 14.2792 9.43225 14.8112 8.78442 15.3777C8.6134 15.5273 8.39368 15.6099 8.16602 15.6099ZM4.63574 2.31226C3.66492 2.31226 2.77307 2.69971 2.12427 3.40332C1.46582 4.11755 1.10315 5.10486 1.10315 6.18347C1.10315 7.32153 1.52612 8.33936 2.47449 9.48364C3.39111 10.5897 4.75452 11.7516 6.33313 13.0969L6.33606 13.0994C6.88794 13.5697 7.51355 14.1029 8.16467 14.6722C8.8197 14.1018 9.44629 13.5677 9.99927 13.0967C11.5778 11.7513 12.941 10.5897 13.8577 9.48364C14.8059 8.33936 15.2289 7.32153 15.2289 6.18347C15.2289 5.10486 14.8662 4.11755 14.2078 3.40332C13.5591 2.69971 12.6671 2.31226 11.6964 2.31226C10.9852 2.31226 10.3323 2.53833 9.75574 2.98413C9.24194 3.38159 8.88403 3.88403 8.67419 4.2356C8.56628 4.41638 8.37634 4.52429 8.16602 4.52429C7.95569 4.52429 7.76575 4.41638 7.65784 4.2356C7.44812 3.88403 7.09021 3.38159 6.57629 2.98413C5.99976 2.53833 5.3468 2.31226 4.63574 2.31226Z" fill="white"/>
</g>
<defs>
<clipPath id="clip0_136_1968">
<rect width="16" height="16" fill="white" transform="translate(0.166016 0.5)"/>
</clipPath>
</defs>
</svg>
