<svg width="17" height="17" viewBox="0 0 17 17" fill="none" xmlns="http://www.w3.org/2000/svg">
<g clip-path="url(#clip0_136_1972)">
<path d="M7.13005 0.5C3.24495 0.5 0.0839844 3.66097 0.0839844 7.54606C0.0839844 11.4314 3.24495 14.5921 7.13005 14.5921C11.0154 14.5921 14.1761 11.4314 14.1761 7.54606C14.1761 3.66097 11.0154 0.5 7.13005 0.5ZM7.13005 13.2913C3.96214 13.2913 1.3848 10.714 1.3848 7.54609C1.3848 4.37819 3.96214 1.80081 7.13005 1.80081C10.298 1.80081 12.8753 4.37816 12.8753 7.54606C12.8753 10.714 10.298 13.2913 7.13005 13.2913Z" fill="white"/>
<path d="M15.8939 15.3883L12.1649 11.6593C11.9108 11.4052 11.4994 11.4052 11.2453 11.6593C10.9912 11.9132 10.9912 12.3251 11.2453 12.579L14.9742 16.308C15.1013 16.435 15.2676 16.4986 15.4341 16.4986C15.6004 16.4986 15.7669 16.435 15.8939 16.308C16.148 16.0541 16.148 15.6422 15.8939 15.3883Z" fill="white"/>
</g>
<defs>
<clipPath id="clip0_136_1972">
<rect width="16" height="16" fill="white" transform="translate(0.0839844 0.5)"/>
</clipPath>
</defs>
</svg>
