<svg width="16" height="16" viewBox="0 0 16 16" fill="none" xmlns="http://www.w3.org/2000/svg">
<path d="M3.53301 12.4666C3.66634 12.5999 3.79967 12.6666 3.99967 12.6666C4.19967 12.6666 4.33301 12.5999 4.46634 12.4666L7.99967 8.93325L11.533 12.4666C11.6663 12.5999 11.8663 12.6666 11.9997 12.6666C12.133 12.6666 12.333 12.5999 12.4663 12.4666C12.733 12.1999 12.733 11.7999 12.4663 11.5333L8.93301 7.99992L12.4663 4.46658C12.733 4.19992 12.733 3.79992 12.4663 3.53325C12.1997 3.26659 11.7997 3.26659 11.533 3.53325L7.99967 7.06659L4.46634 3.53325C4.19967 3.26659 3.79967 3.26659 3.53301 3.53325C3.26634 3.79992 3.26634 4.19992 3.53301 4.46658L7.06634 7.99992L3.53301 11.5333C3.26634 11.7999 3.26634 12.1999 3.53301 12.4666Z" fill="white"/>
</svg>
