<svg width="19" height="18" viewBox="0 0 19 18" fill="none" xmlns="http://www.w3.org/2000/svg">
<g clip-path="url(#clip0_180_2866)">
<path d="M6.125 16.875C6.74632 16.875 7.25 16.3713 7.25 15.75C7.25 15.1287 6.74632 14.625 6.125 14.625C5.50368 14.625 5 15.1287 5 15.75C5 16.3713 5.50368 16.875 6.125 16.875Z" fill="#1A1A1E"/>
<path d="M14 16.875C14.6213 16.875 15.125 16.3713 15.125 15.75C15.125 15.1287 14.6213 14.625 14 14.625C13.3787 14.625 12.875 15.1287 12.875 15.75C12.875 16.3713 13.3787 16.875 14 16.875Z" fill="#1A1A1E"/>
<path d="M3.30159 1.57719C3.27609 1.44968 3.20719 1.33494 3.10663 1.2525C3.00606 1.17005 2.88004 1.125 2.75 1.125H0.5V2.25H2.28875L4.44841 13.0478C4.47391 13.1753 4.54281 13.2901 4.64337 13.3725C4.74394 13.4549 4.86996 13.5 5 13.5H15.125V12.375H5.46125L5.01125 10.125H15.125C15.253 10.125 15.3771 10.0814 15.477 10.0013C15.5768 9.92122 15.6463 9.80949 15.6741 9.68456L16.95 3.9375H15.7984L14.674 9H4.78625L3.30159 1.57719Z" fill="#1A1A1E"/>
<path d="M10.625 3.375V1.125H9.5V3.375H7.25V4.5H9.5V6.75H10.625V4.5H12.875V3.375H10.625Z" fill="#1A1A1E"/>
</g>
<defs>
<clipPath id="clip0_180_2866">
<rect width="18" height="18" fill="white" transform="translate(0.5)"/>
</clipPath>
</defs>
</svg>
