<svg width="24" height="24" viewBox="0 0 24 24" fill="none" xmlns="http://www.w3.org/2000/svg">
<path d="M13.2268 14.1309H3.62676C3.3085 14.1309 3.00327 14.2573 2.77823 14.4823C2.55319 14.7074 2.42676 15.0126 2.42676 15.3309C2.42676 15.6491 2.55319 15.9543 2.77823 16.1794C3.00327 16.4044 3.3085 16.5309 3.62676 16.5309H13.2268C13.545 16.5309 13.8502 16.4044 14.0753 16.1794C14.3003 15.9543 14.4268 15.6491 14.4268 15.3309C14.4268 15.0126 14.3003 14.7074 14.0753 14.4823C13.8502 14.2573 13.545 14.1309 13.2268 14.1309Z" fill="white"/>
<path d="M21.2665 15.0897C21.1581 14.976 21.0278 14.8855 20.8834 14.8236C20.739 14.7618 20.5836 14.7299 20.4265 14.7299C20.2694 14.7299 20.114 14.7618 19.9696 14.8236C19.8252 14.8855 19.6949 14.976 19.5865 15.0897L18.6265 15.9897V5.12969C18.6265 4.81143 18.5001 4.5062 18.275 4.28116C18.05 4.05612 17.7448 3.92969 17.4265 3.92969C17.1082 3.92969 16.803 4.05612 16.578 4.28116C16.3529 4.5062 16.2265 4.81143 16.2265 5.12969V18.7497C16.1937 18.9273 16.2099 19.1105 16.2733 19.2796C16.3367 19.4488 16.445 19.5974 16.5865 19.7097C16.6949 19.8234 16.8252 19.9139 16.9696 19.9758C17.114 20.0376 17.2694 20.0695 17.4265 20.0695C17.5836 20.0695 17.739 20.0376 17.8834 19.9758C18.0278 19.9139 18.1581 19.8234 18.2665 19.7097L21.2065 16.7697C21.431 16.5513 21.5625 16.2547 21.5737 15.9417C21.5849 15.6287 21.4748 15.3235 21.2665 15.0897Z" fill="white"/>
<path d="M13.2268 4.5293H3.62676C3.3085 4.5293 3.00327 4.65573 2.77823 4.88077C2.55319 5.10581 2.42676 5.41104 2.42676 5.7293C2.42676 6.04756 2.55319 6.35278 2.77823 6.57783C3.00327 6.80287 3.3085 6.9293 3.62676 6.9293H13.2268C13.545 6.9293 13.8502 6.80287 14.0753 6.57783C14.3003 6.35278 14.4268 6.04756 14.4268 5.7293C14.4268 5.41104 14.3003 5.10581 14.0753 4.88077C13.8502 4.65573 13.545 4.5293 13.2268 4.5293Z" fill="white"/>
<path d="M3.62676 11.7301H12.0268C12.345 11.7301 12.6502 11.6037 12.8753 11.3786C13.1003 11.1536 13.2268 10.8483 13.2268 10.5301C13.2268 10.2118 13.1003 9.90659 12.8753 9.68155C12.6502 9.45651 12.345 9.33008 12.0268 9.33008H3.62676C3.3085 9.33008 3.00327 9.45651 2.77823 9.68155C2.55319 9.90659 2.42676 10.2118 2.42676 10.5301C2.42676 10.8483 2.55319 11.1536 2.77823 11.3786C3.00327 11.6037 3.3085 11.7301 3.62676 11.7301Z" fill="white"/>
</svg>
