<svg width="16" height="17" viewBox="0 0 16 17" fill="none" xmlns="http://www.w3.org/2000/svg">
<path d="M6.5547 14.0782C2.95802 14.0782 0 11.1537 0 7.52345C0 3.92677 2.92441 0.96875 6.5547 0.96875C10.185 0.96875 13.1094 3.89316 13.1094 7.52345C13.0758 11.1537 10.1514 14.0782 6.5547 14.0782ZM6.5547 1.94355C3.46223 1.94355 0.941188 4.46459 0.941188 7.55706C0.941188 10.6495 3.46223 13.1706 6.5547 13.1706C9.64718 13.1706 12.1682 10.6495 12.1682 7.55706C12.1346 4.46459 9.61356 1.94355 6.5547 1.94355Z" fill="white"/>
<path d="M15.2941 17.002L10.7227 12.4641L11.4622 11.7246L16 16.2961L15.2941 17.002Z" fill="white"/>
</svg>
