<svg width="24" height="24" viewBox="0 0 24 24" fill="none" xmlns="http://www.w3.org/2000/svg">
<path d="M16.0625 6.15359L16.0625 17.9986L14.8592 16.8989C14.5973 16.6596 14.1725 16.6596 13.9106 16.8989C13.6488 17.1384 13.6488 17.5264 13.9106 17.766L16.2568 19.9101C16.3826 20.0251 16.5532 20.0898 16.7312 20.0898C16.9091 20.0898 17.0795 20.0251 17.2053 19.9101L19.5515 17.766C19.8136 17.5264 19.8136 17.1384 19.5515 16.8989C19.2896 16.6596 18.865 16.6596 18.6029 16.8989L17.4031 17.9986L17.4031 6.15359C17.4031 5.81514 17.1029 5.54102 16.7328 5.54102C16.3624 5.54102 16.0625 5.81515 16.0625 6.15359Z" fill="white"/>
<path d="M8.68816 19.6552L8.68816 7.78556L9.88803 8.8821L9.88826 8.8821C10.1501 9.12162 10.5747 9.12162 10.8368 8.8821C11.0987 8.6428 11.0987 8.25454 10.8368 8.01524L8.49065 5.8711C8.36486 5.75593 8.19419 5.69141 8.01626 5.69141C7.83834 5.69141 7.66767 5.75593 7.54189 5.8711L5.19572 8.01524C4.93386 8.25454 4.93386 8.6428 5.19572 8.8821C5.45781 9.12162 5.88241 9.12162 6.14426 8.8821L7.3476 7.78255L7.3476 19.6549C7.3476 19.9931 7.6478 20.2675 8.01789 20.2675C8.38823 20.2675 8.68818 19.9931 8.68818 19.6549L8.68816 19.6552Z" fill="white"/>
</svg>
