<svg width="14" height="14" viewBox="0 0 14 14" fill="none" xmlns="http://www.w3.org/2000/svg">
<g clip-path="url(#clip0_215_3416)">
<path d="M4.375 13.125C4.85825 13.125 5.25 12.7332 5.25 12.25C5.25 11.7668 4.85825 11.375 4.375 11.375C3.89175 11.375 3.5 11.7668 3.5 12.25C3.5 12.7332 3.89175 13.125 4.375 13.125Z" fill="white"/>
<path d="M10.5 13.125C10.9832 13.125 11.375 12.7332 11.375 12.25C11.375 11.7668 10.9832 11.375 10.5 11.375C10.0168 11.375 9.625 11.7668 9.625 12.25C9.625 12.7332 10.0168 13.125 10.5 13.125Z" fill="white"/>
<path d="M2.17901 1.22671C2.15918 1.12753 2.10559 1.03829 2.02738 0.974163C1.94916 0.91004 1.85114 0.874998 1.75 0.875H0V1.75H1.39125L3.07099 10.1483C3.09082 10.2475 3.14441 10.3367 3.22262 10.4008C3.30084 10.465 3.39886 10.5 3.5 10.5H11.375V9.625H3.85875L3.50875 7.875H11.375C11.4745 7.875 11.5711 7.84106 11.6488 7.77878C11.7264 7.7165 11.7805 7.6296 11.8021 7.53244L12.7945 3.0625H11.8987L11.0242 7H3.33375L2.17901 1.22671Z" fill="white"/>
<path d="M7.875 2.625V0.875H7V2.625H5.25V3.5H7V5.25H7.875V3.5H9.625V2.625H7.875Z" fill="white"/>
</g>
<defs>
<clipPath id="clip0_215_3416">
<rect width="14" height="14" fill="white"/>
</clipPath>
</defs>
</svg>
