<svg width="14" height="14" viewBox="0 0 14 14" fill="none" xmlns="http://www.w3.org/2000/svg">
<path d="M10.3863 7.07878C10.3455 7.03828 10.2971 7.0062 10.2439 6.98439C10.1907 6.96258 10.1338 6.95146 10.0763 6.95166C10.0188 6.95187 9.96192 6.96339 9.90889 6.98558C9.85586 7.00776 9.80772 7.04018 9.76721 7.08097C9.72671 7.12176 9.69464 7.17013 9.67282 7.22332C9.65101 7.27651 9.63989 7.33347 9.6401 7.39095C9.6403 7.44844 9.65182 7.50532 9.67401 7.55835C9.69619 7.61138 9.72861 7.65953 9.7694 7.70003C10.1396 8.06631 10.4335 8.50238 10.634 8.98301C10.8345 9.46363 10.9377 9.97926 10.9375 10.5C10.9375 11.0338 9.4019 11.8125 7.00003 11.8125C4.59815 11.8125 3.06253 11.0338 3.06253 10.5C3.06183 9.98269 3.16309 9.47028 3.36053 8.9921C3.55796 8.51391 3.84768 8.07932 4.21315 7.71316C4.29464 7.63118 4.34037 7.5203 4.34037 7.40472C4.34037 7.28914 4.29464 7.17825 4.21315 7.09628C4.13118 7.0148 4.0203 6.96906 3.90471 6.96906C3.78913 6.96906 3.67825 7.0148 3.59628 7.09628C3.14789 7.54217 2.79247 8.07263 2.55065 8.65692C2.30882 9.2412 2.1854 9.86768 2.18753 10.5C2.18753 11.9219 4.66815 12.6875 7.00003 12.6875C9.3319 12.6875 11.8125 11.9219 11.8125 10.5C11.8142 9.86358 11.6889 9.23319 11.444 8.64573C11.1991 8.05828 10.8395 7.52558 10.3863 7.07878Z" fill="white"/>
<path d="M7 7.4375C7.60571 7.4375 8.19781 7.25789 8.70143 6.92138C9.20506 6.58487 9.59759 6.10657 9.82938 5.54697C10.0612 4.98737 10.1218 4.3716 10.0037 3.77754C9.88549 3.18347 9.59381 2.63778 9.16551 2.20949C8.73722 1.78119 8.19153 1.48951 7.59746 1.37135C7.0034 1.25318 6.38763 1.31383 5.82803 1.54562C5.26843 1.77741 4.79014 2.16994 4.45362 2.67357C4.11711 3.17719 3.9375 3.7693 3.9375 4.375C3.9375 5.18723 4.26016 5.96619 4.83449 6.54052C5.40882 7.11485 6.18777 7.4375 7 7.4375ZM7 2.1875C7.43265 2.1875 7.85558 2.3158 8.21531 2.55616C8.57504 2.79653 8.85542 3.13817 9.02099 3.53788C9.18655 3.93759 9.22987 4.37743 9.14547 4.80176C9.06106 5.22609 8.85272 5.61587 8.5468 5.9218C8.24087 6.22772 7.85109 6.43606 7.42676 6.52047C7.00243 6.60487 6.56259 6.56155 6.16288 6.39599C5.76317 6.23042 5.42153 5.95004 5.18116 5.59031C4.94079 5.23058 4.8125 4.80765 4.8125 4.375C4.8125 3.79484 5.04297 3.23844 5.4532 2.82821C5.86344 2.41797 6.41984 2.1875 7 2.1875Z" fill="white"/>
</svg>
