<svg width="16" height="16" viewBox="0 0 16 16" fill="none" xmlns="http://www.w3.org/2000/svg">
<g clip-path="url(#clip0_236_2637)">
<path d="M0.800781 3.2C0.800781 2.32 1.52078 1.6 2.40078 1.6H13.6008C14.0251 1.6 14.4321 1.76857 14.7322 2.06863C15.0322 2.36869 15.2008 2.77565 15.2008 3.2V14.4C15.2008 14.8243 15.0322 15.2313 14.7322 15.5314C14.4321 15.8314 14.0251 16 13.6008 16H2.40078C1.97643 16 1.56947 15.8314 1.26941 15.5314C0.969352 15.2313 0.800781 14.8243 0.800781 14.4V3.2ZM2.40078 4.8V14.4H13.6008V4.8H2.40078ZM4.00078 0H5.60078V1.6H4.00078V0ZM10.4008 0H12.0008V1.6H10.4008V0ZM4.00078 7.2H5.60078V8.8H4.00078V7.2ZM4.00078 10.4H5.60078V12H4.00078V10.4ZM7.20078 7.2H8.80078V8.8H7.20078V7.2ZM7.20078 10.4H8.80078V12H7.20078V10.4ZM10.4008 7.2H12.0008V8.8H10.4008V7.2ZM10.4008 10.4H12.0008V12H10.4008V10.4Z" fill="white"/>
</g>
<defs>
<clipPath id="clip0_236_2637">
<rect width="16" height="16" fill="white"/>
</clipPath>
</defs>
</svg>
