<svg width="27" height="27" viewBox="0 0 27 27" fill="none" xmlns="http://www.w3.org/2000/svg">
<g clip-path="url(#clip0_86_1855)">
<path d="M24.697 18.93C24.314 18.7196 23.8331 18.8595 23.6229 19.2424C23.4125 19.6253 23.5524 20.1062 23.9353 20.3165C24.8775 20.8341 25.418 21.408 25.418 21.8909C25.418 22.4816 24.5811 23.3971 22.2321 24.1951C19.9116 24.9836 16.8104 25.4178 13.5 25.4178C10.1896 25.4178 7.08845 24.9836 4.76787 24.1951C2.41893 23.3971 1.58203 22.4816 1.58203 21.8909C1.58203 21.408 2.12245 20.8341 3.06471 20.3165C3.44762 20.1061 3.58747 19.6252 3.37711 19.2423C3.16675 18.8595 2.68597 18.7196 2.30296 18.9299C1.25239 19.5071 0 20.4893 0 21.8909C0 22.9654 0.738914 24.4972 4.25893 25.6931C6.73914 26.5357 10.021 26.9998 13.5 26.9998C16.979 26.9998 20.2609 26.5357 22.7411 25.6931C26.2611 24.4972 27 22.9654 27 21.8909C27 20.4893 25.7476 19.5071 24.697 18.93Z" fill="#6EBC48"/>
<path d="M7.52702 23.0516C9.13278 23.5052 11.2537 23.7551 13.4991 23.7551C15.7445 23.7551 17.8654 23.5053 19.4711 23.0516C21.4357 22.4967 22.4318 21.6933 22.4318 20.664C22.4318 19.6347 21.4357 18.8315 19.4711 18.2765C19.035 18.1534 18.5607 18.0453 18.0565 17.9531C17.7826 18.4263 17.4957 18.9133 17.1957 19.4143C17.7538 19.498 18.2779 19.6007 18.7537 19.7219C20.1995 20.0902 20.7277 20.5047 20.8363 20.6641C20.7276 20.8235 20.1996 21.2381 18.7538 21.6062C17.3854 21.9548 15.6248 22.1536 13.7705 22.1713C13.6807 22.178 13.5902 22.1817 13.4991 22.1817C13.4079 22.1817 13.3175 22.178 13.2276 22.1713C11.3733 22.1536 9.61272 21.9548 8.24431 21.6062C6.79855 21.2381 6.27041 20.8235 6.16183 20.6641C6.27041 20.5047 6.7986 20.0902 8.24436 19.7219C8.72024 19.6008 9.24426 19.498 9.80245 19.4143C9.50245 18.9133 9.21552 18.4262 8.94167 17.9531C8.43743 18.0454 7.96308 18.1534 7.52702 18.2765C5.56251 18.8315 4.56641 19.6348 4.56641 20.664C4.56641 21.6933 5.56251 22.4966 7.52702 23.0516Z" fill="#6EBC48"/>
<path d="M13.4998 20.5998C14.2039 20.5998 14.8435 20.241 15.2109 19.64C17.7849 15.4288 20.853 9.87873 20.853 7.35323C20.853 3.29864 17.5544 0 13.4998 0C9.44513 0 6.14648 3.29864 6.14648 7.35323C6.14648 9.87873 9.21473 15.4288 11.7886 19.64C12.156 20.241 12.7957 20.5998 13.4998 20.5998ZM10.5442 6.84835C10.5442 5.2187 11.8701 3.89285 13.4998 3.89285C15.1295 3.89285 16.4554 5.2187 16.4554 6.84835C16.4554 8.47805 15.1295 9.8039 13.4998 9.8039C11.8701 9.8039 10.5442 8.47811 10.5442 6.84835Z" fill="#6EBC48"/>
</g>
<defs>
<clipPath id="clip0_86_1855">
<rect width="27" height="27" fill="white"/>
</clipPath>
</defs>
</svg>
