<svg width="19" height="26" viewBox="0 0 19 26" fill="none" xmlns="http://www.w3.org/2000/svg">
<g clip-path="url(#clip0_86_1895)">
<path d="M14.1928 9.08478C13.0949 9.08478 12.0839 9.51803 11.3905 10.2693L7.25933 6.13806C7.66376 5.53129 7.92372 4.75145 7.92372 3.94256C7.89491 1.74706 6.16171 0.0136719 3.966 0.0136719C1.77049 0.0136719 0.0371094 1.74711 0.0371094 3.94256C0.0371094 6.13801 1.77055 7.87145 3.966 7.87145C4.77489 7.87145 5.49711 7.64031 6.1615 7.20706L10.5527 11.5982C10.3794 12.0315 10.3215 12.4937 10.3215 13.0138C10.3215 13.5337 10.4082 13.996 10.5527 14.4294L6.16171 18.7914C5.55494 18.387 4.77509 18.127 3.9662 18.127C1.7707 18.127 0.0373156 19.8604 0.0373156 22.0559C0.0373156 24.2513 1.77075 25.9848 3.9662 25.9848C6.16171 25.9848 7.89509 24.2513 7.89509 22.0559C7.89509 21.247 7.66396 20.5248 7.2307 19.8892L11.3905 15.787C12.1128 16.5092 13.0949 16.9715 14.1928 16.9715C16.3883 16.9715 18.1217 15.2381 18.1217 13.0426C18.1217 10.847 16.3882 9.08468 14.1928 9.08468V9.08478Z" fill="#6EBC48"/>
</g>
<defs>
<clipPath id="clip0_86_1895">
<rect width="18.1458" height="26" fill="white"/>
</clipPath>
</defs>
</svg>
