<svg width="25" height="27" viewBox="0 0 25 27" fill="none" xmlns="http://www.w3.org/2000/svg">
<g clip-path="url(#clip0_86_1874)">
<path fill-rule="evenodd" clip-rule="evenodd" d="M15.6667 1.16602C16.311 1.16602 16.8333 1.68835 16.8333 2.33268V8.16602H22.6667C23.311 8.16602 23.8333 8.68835 23.8333 9.33268C23.8333 9.97701 23.311 10.4993 22.6667 10.4993H15.6667C15.0223 10.4993 14.5 9.97701 14.5 9.33268V2.33268C14.5 1.68835 15.0223 1.16602 15.6667 1.16602Z" fill="#6EBC48"/>
<path fill-rule="evenodd" clip-rule="evenodd" d="M24.6583 0.341709C25.1139 0.79732 25.1139 1.53601 24.6583 1.99162L16.4916 10.1583C16.036 10.6139 15.2973 10.6139 14.8417 10.1583C14.3861 9.70268 14.3861 8.96399 14.8417 8.50838L23.0084 0.341709C23.464 -0.113903 24.2027 -0.113903 24.6583 0.341709Z" fill="#6EBC48"/>
<g clip-path="url(#clip1_86_1874)">
<path d="M20.4642 20.1593C18.7811 20.0053 17.14 19.5776 15.5891 18.8869C14.8269 18.5431 13.9356 18.8542 13.5607 19.5947L12.5029 21.6947C9.29533 19.9167 6.63533 17.2551 4.86044 14.0507L6.95888 12.9945C7.69933 12.6227 8.012 11.7313 7.66977 10.966C6.97755 9.41668 6.54822 7.77713 6.39577 6.0909C6.32111 5.2789 5.66 4.66602 4.85577 4.66602H0.889106C0.459773 4.66602 0.111328 5.01446 0.111328 5.44379C0.111328 8.6109 0.801995 11.6645 2.16311 14.5236C4.23044 18.82 7.73511 22.3247 12.0347 24.3936C14.8922 25.7547 17.9458 26.4438 21.1113 26.4438C21.5407 26.4438 21.8891 26.0954 21.8891 25.666V21.6993C21.8891 20.8951 21.2762 20.2325 20.4642 20.1593Z" fill="#6EBC48"/>
</g>
</g>
<defs>
<clipPath id="clip0_86_1874">
<rect width="25" height="27" fill="white"/>
</clipPath>
<clipPath id="clip1_86_1874">
<rect width="21.7778" height="21.7778" fill="white" transform="translate(0.111328 4.66602)"/>
</clipPath>
</defs>
</svg>
