<svg width="24" height="24" viewBox="0 0 24 24" fill="none" xmlns="http://www.w3.org/2000/svg">
<path d="M11.5355 2.51099C6.47678 2.74991 2.4847 6.92883 2.50004 11.9524C2.50472 13.4824 2.87711 14.9266 3.53402 16.2027L2.52542 21.0589C2.47086 21.3216 2.70972 21.5517 2.9728 21.4899L7.77018 20.3624C9.0027 20.9714 10.3871 21.3232 11.8522 21.3454C17.0228 21.4237 21.3341 17.3513 21.4953 12.2245C21.668 6.72885 17.0953 2.24835 11.5355 2.51099ZM17.2598 17.1406C15.8549 18.5342 13.9869 19.3017 12 19.3017C10.8366 19.3017 9.72279 19.0427 8.68936 18.5321L8.02126 18.202L5.07998 18.8932L5.6991 15.9121L5.36996 15.2727C4.83347 14.2306 4.56145 13.1036 4.56145 11.9232C4.56145 9.95236 5.33519 8.0995 6.74014 6.70586C8.13254 5.32471 10.031 4.54474 12.0001 4.54474C13.987 4.54479 15.8549 5.31226 17.2599 6.70581C18.6648 8.09941 19.4386 9.95226 19.4386 11.9231C19.4386 13.8764 18.6522 15.7595 17.2598 17.1406Z" fill="white"/>
<path d="M16.608 13.9665L14.7679 13.4424C14.526 13.3735 14.2655 13.4415 14.0892 13.6197L13.6392 14.0745C13.4494 14.2662 13.1615 14.3278 12.9104 14.2271C12.0399 13.8776 10.2088 12.2627 9.74115 11.4549C9.60624 11.2219 9.62855 10.9306 9.7942 10.718L10.1871 10.2138C10.341 10.0163 10.3735 9.751 10.2717 9.52266L9.49749 7.78581C9.31205 7.36981 8.77611 7.24871 8.42599 7.54244C7.91241 7.9733 7.30304 8.62804 7.22897 9.3534C7.09836 10.6323 7.65129 12.2444 9.7422 14.1801C12.1578 16.4164 14.0922 16.7119 15.3516 16.4093C16.066 16.2376 16.6369 15.5496 16.9972 14.9862C17.2428 14.6021 17.0488 14.092 16.608 13.9665Z" fill="white"/>
</svg>
