<svg width="22" height="22" viewBox="0 0 22 22" fill="none" xmlns="http://www.w3.org/2000/svg">
<path d="M11 4.875C10.5167 4.875 10.125 5.26675 10.125 5.75C10.125 6.23325 10.5167 6.625 11 6.625H18C18.4833 6.625 18.875 6.23325 18.875 5.75C18.875 5.26675 18.4833 4.875 18 4.875H11Z" fill="white"/>
<path d="M6.625 11C6.625 10.5167 7.01675 10.125 7.5 10.125H14.5C14.9833 10.125 15.375 10.5167 15.375 11C15.375 11.4833 14.9833 11.875 14.5 11.875H7.5C7.01675 11.875 6.625 11.4833 6.625 11Z" fill="white"/>
<path d="M3.125 16.25C3.125 15.7667 3.51675 15.375 4 15.375H11C11.4833 15.375 11.875 15.7667 11.875 16.25C11.875 16.7333 11.4833 17.125 11 17.125H4C3.51675 17.125 3.125 16.7333 3.125 16.25Z" fill="white"/>
</svg>
