<svg width="19" height="18" viewBox="0 0 19 18" fill="none" xmlns="http://www.w3.org/2000/svg">
<path d="M15.1085 3.225C14.8085 2.925 14.3585 2.925 14.0585 3.225L11.5835 5.7V5.25C11.5835 4.8 11.2835 4.5 10.8335 4.5C10.3835 4.5 10.0835 4.8 10.0835 5.25V7.5C10.0835 7.575 10.0835 7.725 10.1585 7.8C10.2335 7.95 10.3835 8.1 10.5335 8.175C10.6085 8.25 10.7585 8.25 10.8335 8.25H13.0835C13.5335 8.25 13.8335 7.95 13.8335 7.5C13.8335 7.05 13.5335 6.75 13.0835 6.75H12.6335L15.1085 4.275C15.4085 3.975 15.4085 3.525 15.1085 3.225Z" fill="white"/>
<path d="M12.2585 10.725C11.5835 10.05 10.4585 10.05 9.70855 10.725C9.55855 10.875 9.25855 10.875 9.03355 10.725L7.60854 9.3C7.45854 9.15 7.45854 8.85 7.60854 8.625C8.28354 7.95 8.28354 6.825 7.60854 6.075L5.88354 4.35C5.20854 3.675 4.08354 3.675 3.40854 4.35C2.58354 5.1 2.13354 6.225 2.13354 7.35C2.13354 8.475 2.58354 9.525 3.33354 10.35L7.98354 15C8.80854 15.825 9.85854 16.2 10.9835 16.2C12.1085 16.2 13.1585 15.75 13.9835 15C14.2835 14.7 14.5085 14.25 14.5085 13.725C14.5085 13.275 14.3585 12.825 13.9835 12.45L12.2585 10.725ZM12.9335 13.875C11.8835 14.925 10.0835 14.925 9.10854 13.875L4.45854 9.225C3.93354 8.7 3.63354 8.025 3.63354 7.275C3.63354 6.525 3.93354 5.85 4.45854 5.325C4.53354 5.25 4.60855 5.25 4.68355 5.25C4.75854 5.25 4.83354 5.25 4.90854 5.325L6.63354 7.05C6.70854 7.125 6.70854 7.2 6.70854 7.275C6.70854 7.35 6.70854 7.425 6.63354 7.5C5.88354 8.25 5.88354 9.525 6.63354 10.275L8.05855 11.7C8.80855 12.45 10.0835 12.45 10.8335 11.7C10.9835 11.55 11.0585 11.55 11.2085 11.7L12.9335 13.425C13.0835 13.575 13.0835 13.8 12.9335 13.875Z" fill="white"/>
</svg>
