<svg width="20" height="20" viewBox="0 0 20 20" fill="none" xmlns="http://www.w3.org/2000/svg">
<g clip-path="url(#clip0_86_539)">
<path d="M9.16732 7.50065H10.834V5.00065H13.334V3.33398H10.834V0.833984H9.16732V3.33398H6.66732V5.00065H9.16732V7.50065ZM5.83398 15.0007C4.91315 15.0007 4.17565 15.7465 4.17565 16.6673C4.17565 17.5882 4.91315 18.334 5.83398 18.334C6.75482 18.334 7.50065 17.5882 7.50065 16.6673C7.50065 15.7465 6.75482 15.0007 5.83398 15.0007ZM14.1673 15.0007C13.2465 15.0007 12.509 15.7465 12.509 16.6673C12.509 17.5882 13.2465 18.334 14.1673 18.334C15.0882 18.334 15.834 17.5882 15.834 16.6673C15.834 15.7465 15.0882 15.0007 14.1673 15.0007ZM5.97982 12.2923C5.97982 12.2548 5.98815 12.2215 6.00482 12.1923L6.75482 10.834H12.9632C13.5882 10.834 14.134 10.4882 14.4215 9.97565L17.6382 4.13398L16.1798 3.33398H16.1757L15.2548 5.00065L12.959 9.16732H7.11315L7.00482 8.94232L5.13398 5.00065L4.34232 3.33398L3.55482 1.66732H0.833984V3.33398H2.50065L5.50065 9.65482L4.37148 11.6965C4.24232 11.9382 4.16732 12.209 4.16732 12.5007C4.16732 13.4215 4.91315 14.1673 5.83398 14.1673H15.834V12.5007H6.18815C6.07148 12.5007 5.97982 12.409 5.97982 12.2923Z" fill="white"/>
</g>
<defs>
<clipPath id="clip0_86_539">
<rect width="20" height="20" fill="white"/>
</clipPath>
</defs>
</svg>
