<svg width="17" height="16" viewBox="0 0 17 16" fill="none" xmlns="http://www.w3.org/2000/svg">
<path d="M8.33358 0.666668C6.88318 0.666668 5.46536 1.09676 4.2594 1.90256C3.05344 2.70835 2.11351 3.85366 1.55846 5.19366C1.00342 6.53365 0.858197 8.00814 1.14116 9.43066C1.42411 10.8532 2.12255 12.1599 3.14813 13.1855C4.17372 14.211 5.48039 14.9095 6.90292 15.1924C8.32545 15.4754 9.79994 15.3302 11.1399 14.7751C12.4799 14.2201 13.6252 13.2801 14.431 12.0742C15.2368 10.8682 15.6669 9.4504 15.6669 8C15.6646 6.05578 14.8913 4.19185 13.5165 2.81709C12.1417 1.44232 10.2778 0.668962 8.33358 0.666668ZM8.33358 14C7.14689 14 5.98685 13.6481 5.00016 12.9888C4.01346 12.3295 3.24443 11.3925 2.7903 10.2961C2.33618 9.19975 2.21736 7.99335 2.44887 6.82946C2.68038 5.66557 3.25182 4.59648 4.09094 3.75736C4.93005 2.91825 5.99915 2.3468 7.16304 2.11529C8.32693 1.88378 9.53333 2.0026 10.6297 2.45672C11.726 2.91085 12.6631 3.67989 13.3224 4.66658C13.9817 5.65328 14.3336 6.81331 14.3336 8C14.3316 9.5907 13.6989 11.1157 12.5741 12.2405C11.4493 13.3653 9.92428 13.9981 8.33358 14Z" fill="white"/>
<path d="M9.00008 7.724V4C9.00008 3.82319 8.92984 3.65362 8.80482 3.5286C8.67979 3.40357 8.51023 3.33333 8.33341 3.33333C8.1566 3.33333 7.98703 3.40357 7.86201 3.5286C7.73699 3.65362 7.66675 3.82319 7.66675 4V8C7.66679 8.1768 7.73705 8.34634 7.86208 8.47133L9.86208 10.4713C9.98782 10.5928 10.1562 10.66 10.331 10.6585C10.5058 10.6569 10.673 10.5868 10.7966 10.4632C10.9202 10.3396 10.9903 10.1724 10.9919 9.9976C10.9934 9.8228 10.9262 9.6544 10.8047 9.52867L9.00008 7.724Z" fill="white"/>
</svg>
