<svg width="15" height="16" viewBox="0 0 15 16" fill="none" xmlns="http://www.w3.org/2000/svg">
<g clip-path="url(#clip0_8_1297)">
<path d="M13.7206 11.0168C13.5078 10.8999 13.2406 10.9776 13.1238 11.1903C13.007 11.403 13.0847 11.6702 13.2974 11.7871C13.8209 12.0746 14.1211 12.3934 14.1211 12.6617C14.1211 12.9899 13.6562 13.4985 12.3512 13.9418C11.062 14.3799 9.33911 14.6211 7.5 14.6211C5.66089 14.6211 3.93803 14.3799 2.64882 13.9418C1.34385 13.4985 0.878906 12.9899 0.878906 12.6617C0.878906 12.3934 1.17914 12.0746 1.70262 11.787C1.91534 11.6702 1.99304 11.403 1.87617 11.1903C1.75931 10.9776 1.49221 10.8999 1.27942 11.0167C0.695772 11.3374 0 11.8831 0 12.6617C0 13.2586 0.410508 14.1097 2.36607 14.7741C3.74396 15.2422 5.56723 15.5 7.5 15.5C9.43277 15.5 11.256 15.2422 12.6339 14.7741C14.5895 14.1097 15 13.2586 15 12.6617C15 11.8831 14.3042 11.3374 13.7206 11.0168Z" fill="white"/>
<path d="M4.18214 13.3065C5.07423 13.5586 6.25252 13.6974 7.49995 13.6974C8.74738 13.6974 9.92567 13.5586 10.8178 13.3065C11.9092 12.9983 12.4625 12.5519 12.4625 11.9801C12.4625 11.4083 11.9092 10.962 10.8178 10.6537C10.5755 10.5853 10.312 10.5253 10.0318 10.4741C9.87971 10.7369 9.7203 11.0075 9.55363 11.2858C9.86371 11.3323 10.1548 11.3894 10.4192 11.4567C11.2224 11.6613 11.5159 11.8916 11.5762 11.9802C11.5158 12.0687 11.2224 12.299 10.4192 12.5036C9.65901 12.6972 8.68091 12.8076 7.65074 12.8175C7.60085 12.8212 7.55058 12.8233 7.49995 12.8233C7.4493 12.8233 7.39905 12.8212 7.34913 12.8175C6.31896 12.8076 5.34086 12.6972 4.58063 12.5036C3.77743 12.299 3.48402 12.0687 3.4237 11.9802C3.48402 11.8916 3.77746 11.6613 4.58066 11.4567C4.84504 11.3894 5.13616 11.3323 5.44627 11.2858C5.2796 11.0075 5.1202 10.7369 4.96806 10.4741C4.68792 10.5253 4.42439 10.5853 4.18214 10.6537C3.09074 10.962 2.53735 11.4083 2.53735 11.9801C2.53735 12.5519 3.09074 12.9982 4.18214 13.3065Z" fill="white"/>
<path d="M7.49995 11.9444C7.89115 11.9444 8.24649 11.745 8.45058 11.4111C9.88056 9.07156 11.5851 5.98818 11.5851 4.58513C11.5851 2.33258 9.75253 0.5 7.49995 0.5C5.24737 0.5 3.41479 2.33258 3.41479 4.58513C3.41479 5.98818 5.11938 9.07156 6.54933 11.4111C6.75341 11.745 7.10878 11.9444 7.49995 11.9444ZM5.85795 4.30464C5.85795 3.39928 6.59456 2.6627 7.49995 2.6627C8.40534 2.6627 9.14195 3.39928 9.14195 4.30464C9.14195 5.21003 8.40534 5.94661 7.49995 5.94661C6.59456 5.94661 5.85795 5.21006 5.85795 4.30464Z" fill="white"/>
</g>
<defs>
<clipPath id="clip0_8_1297">
<rect width="15" height="15" fill="white" transform="translate(0 0.5)"/>
</clipPath>
</defs>
</svg>
