<svg width="16" height="17" viewBox="0 0 16 17" fill="none" xmlns="http://www.w3.org/2000/svg">
<g clip-path="url(#clip0_122_1955)">
<path d="M13.3125 16.0006H2.6875C1.89487 16.0006 1.25 15.3558 1.25 14.5631V7C1.25 6.72387 1.47384 6.5 1.75 6.5C2.02616 6.5 2.25 6.72387 2.25 7V14.5631C2.25 14.8044 2.44625 15.0006 2.6875 15.0006H13.3125C13.5538 15.0006 13.75 14.8044 13.75 14.5631V7C13.75 6.72387 13.9738 6.5 14.25 6.5C14.5262 6.5 14.75 6.72387 14.75 7V14.5631C14.75 15.3557 14.1052 16.0006 13.3125 16.0006Z" fill="#6EBC48"/>
<path d="M15.5 8.74815C15.372 8.74815 15.2441 8.69934 15.1465 8.60168L8.92805 2.38334C8.41634 1.87159 7.58368 1.87159 7.07193 2.38334L0.853555 8.60171C0.658305 8.797 0.341711 8.797 0.146461 8.60171C-0.0488203 8.40646 -0.0488203 8.08987 0.146461 7.89462L6.36484 1.67622C7.26646 0.774594 8.73355 0.774594 9.63515 1.67622L15.8535 7.89459C16.0488 8.08987 16.0488 8.40643 15.8535 8.60168C15.7559 8.69934 15.628 8.74815 15.5 8.74815Z" fill="#6EBC48"/>
<path d="M10 16H6C5.72384 16 5.5 15.7761 5.5 15.5V11.0625C5.5 10.2009 6.20094 9.5 7.0625 9.5H8.9375C9.79906 9.5 10.5 10.2009 10.5 11.0625V15.5C10.5 15.7761 10.2762 16 10 16ZM6.5 15H9.5V11.0625C9.5 10.7523 9.24766 10.5 8.9375 10.5H7.0625C6.75234 10.5 6.5 10.7523 6.5 11.0625V15Z" fill="#6EBC48"/>
</g>
<defs>
<clipPath id="clip0_122_1955">
<rect width="16" height="16" fill="white" transform="translate(0 0.5)"/>
</clipPath>
</defs>
</svg>
