<svg width="260" height="46" viewBox="0 0 260 46" fill="none" xmlns="http://www.w3.org/2000/svg">
<path d="M39.6657 20.1625H34.3555V4.87847L35.3789 1.60736H34.079L29.7368 20.1625H19.3654V0.281992H24.6479V15.566L23.6246 18.8371H24.9244L29.2666 0.281992H39.6657V20.1625Z" fill="white"/>
<path d="M49.6586 0.281992C50.7649 0.281992 51.7144 0.328991 52.5073 0.422988C53.3001 0.498186 54.1022 0.686181 54.9135 0.986974C55.7247 1.26897 56.3793 1.66376 56.8771 2.17134C57.3934 2.67893 57.8082 3.37451 58.1217 4.25809C58.4351 5.14166 58.5919 6.20383 58.5919 7.4446C58.5919 8.68536 58.4351 9.74754 58.1217 10.6311C57.8082 11.5147 57.3934 12.2103 56.8771 12.7179C56.3793 13.2254 55.7247 13.6296 54.9135 13.9304C54.1022 14.2124 53.3001 14.4004 52.5073 14.4944C51.7144 14.5696 50.7649 14.6072 49.6586 14.6072H47.3354V20.1625H42.0529V0.281992H49.6586ZM50.0181 9.86973C51.3088 9.86973 52.1754 9.73814 52.6179 9.47494C53.0789 9.19295 53.3093 8.51617 53.3093 7.4446C53.3093 6.37303 53.0789 5.70565 52.6179 5.44245C52.1754 5.16046 51.3088 5.01946 50.0181 5.01946H47.3354V9.86973H50.0181Z" fill="white"/>
<path d="M78.3929 0.281992V20.1625H73.1104V5.01946H65.8365V20.1625H60.554V0.281992H78.3929Z" fill="white"/>
<path d="M101.084 20.1625H95.7739V4.87847L96.7972 1.60736H95.4973L91.1551 20.1625H80.7837V0.281992H86.0662V15.566L85.0429 18.8371H86.3428L90.685 0.281992H101.084V20.1625Z" fill="white"/>
<path d="M117.118 0.281992H122.401V20.1625H117.118V14.1278L106.719 14.6918C105.889 14.7294 105.244 14.5414 104.783 14.1278C104.341 13.6954 104.119 13.0562 104.119 12.2103V0.281992H109.402V9.81333L117.118 9.39034V0.281992Z" fill="white"/>
<path d="M139.838 0.281992H145.148V20.1625H139.838V12.9153H130.739V20.1625H125.456V0.281992H130.739V8.17778H139.838V0.281992Z" fill="white"/>
<path d="M167.823 20.1625H162.513V4.87847L163.536 1.60736H162.236L157.894 20.1625H147.523V0.281992H152.805V15.566L151.782 18.8371H153.082L157.424 0.281992H167.823V20.1625Z" fill="white"/>
<path d="M182.696 20.1625L177.607 13.1126C177.164 13.5262 176.676 13.8364 176.141 14.0432V20.1625H170.859V0.281992H176.141V7.1908L180.981 1.74835C181.866 0.770779 182.945 0.281992 184.217 0.281992H188.227V5.01946H184.881L181.036 9.27755L188.974 20.1625H182.696Z" fill="white"/>
<path d="M190.596 10.2081C190.596 7.2566 191.527 4.82207 193.389 2.90452C195.251 0.968174 197.75 0 200.884 0C204 0 206.489 0.968174 208.352 2.90452C210.214 4.82207 211.145 7.2566 211.145 10.2081C211.145 13.1784 210.214 15.6318 208.352 17.5681C206.489 19.4857 204 20.4444 200.884 20.4444C197.75 20.4444 195.251 19.4857 193.389 17.5681C191.527 15.6318 190.596 13.1784 190.596 10.2081ZM195.878 10.2081C195.878 11.9753 196.302 13.3382 197.15 14.297C197.998 15.237 199.243 15.707 200.884 15.707C202.525 15.707 203.76 15.237 204.59 14.297C205.438 13.3382 205.862 11.9753 205.862 10.2081C205.862 8.45977 205.438 7.11561 204.59 6.17563C203.76 5.21686 202.525 4.73747 200.884 4.73747C199.243 4.73747 197.998 5.21686 197.15 6.17563C196.302 7.11561 195.878 8.45977 195.878 10.2081Z" fill="white"/>
<path d="M233.852 4.73747C235.493 6.07224 236.313 7.91459 236.313 10.2645C236.313 12.6145 235.493 14.4662 233.852 15.8198C232.211 17.1545 229.924 17.9629 226.993 18.2449V20.1625H222.429V18.2731C219.461 17.9911 217.156 17.1827 215.515 15.848C213.892 14.4944 213.081 12.6333 213.081 10.2645C213.081 7.91459 213.892 6.07224 215.515 4.73747C217.156 3.38391 219.461 2.56613 222.429 2.28414V0.281992H226.993V2.31234C229.943 2.57553 232.229 3.38391 233.852 4.73747ZM219.332 7.86759C218.686 8.31877 218.364 9.11775 218.364 10.2645C218.364 11.4113 218.686 12.2197 219.332 12.6897C219.995 13.1596 221.028 13.451 222.429 13.5638V6.99341C221.028 7.10621 219.995 7.3976 219.332 7.86759ZM226.993 13.5638C228.375 13.451 229.39 13.1596 230.035 12.6897C230.699 12.2197 231.031 11.4113 231.031 10.2645C231.031 9.11775 230.708 8.31877 230.063 7.86759C229.417 7.3976 228.394 7.10621 226.993 6.99341V13.5638Z" fill="white"/>
<path d="M257.538 4.73747C259.179 6.07224 260 7.91459 260 10.2645C260 12.6145 259.179 14.4662 257.538 15.8198C255.897 17.1545 253.611 17.9629 250.679 18.2449V20.1625H246.116V18.2731C243.148 17.9911 240.843 17.1827 239.202 15.848C237.579 14.4944 236.768 12.6333 236.768 10.2645C236.768 7.91459 237.579 6.07224 239.202 4.73747C240.843 3.38391 243.148 2.56613 246.116 2.28414V0.281992H250.679V2.31234C253.63 2.57553 255.916 3.38391 257.538 4.73747ZM243.018 7.86759C242.373 8.31877 242.05 9.11775 242.05 10.2645C242.05 11.4113 242.373 12.2197 243.018 12.6897C243.682 13.1596 244.715 13.451 246.116 13.5638V6.99341C244.715 7.10621 243.682 7.3976 243.018 7.86759ZM250.679 13.5638C252.062 13.451 253.076 13.1596 253.722 12.6897C254.386 12.2197 254.717 11.4113 254.717 10.2645C254.717 9.11775 254.395 8.31877 253.749 7.86759C253.104 7.3976 252.081 7.10621 250.679 6.99341V13.5638Z" fill="white"/>
<rect width="260" height="18.7407" transform="translate(0 27.2593)" fill="#6EBC48"/>
<path d="M7.35681 40.534V32.4598H9.15796L11.3412 40.2705H11.5922L13.7864 32.4598H15.5766V40.534H14.6815V33.3989L14.8343 32.7232H14.5723L12.3673 40.534H10.5661L8.36109 32.7232H8.11002L8.25193 33.3989V40.534H7.35681Z" fill="#1A1A1E"/>
<path d="M24.7313 40.534L23.7598 37.373H20.6705L19.7099 40.534H18.8148L21.3037 32.4598H23.1376L25.6155 40.534H24.7313ZM20.9216 36.5713H23.5196L22.3407 32.7232H22.0896L20.9216 36.5713Z" fill="#1A1A1E"/>
<path d="M33.4592 32.4598V33.2615H30.7957V40.534H29.9115V33.2615H27.2261V32.4598H33.4592Z" fill="#1A1A1E"/>
<path d="M36.7086 40.534V32.4598H41.4789V33.2615H37.6037V36.0903H40.9331V36.892H37.6037V39.7323H41.4789V40.534H36.7086Z" fill="#1A1A1E"/>
<path d="M47.0975 32.4598C48.1527 32.4598 48.9459 32.6507 49.4772 33.0325C50.0084 33.4142 50.274 34.1014 50.274 35.0939C50.274 36.0941 50.0084 36.7889 49.4772 37.1783C48.9459 37.5601 48.1527 37.751 47.0975 37.751H45.8312V40.534H44.9361V32.4598H47.0975ZM47.1084 36.9493C47.4723 36.9493 47.7779 36.9264 48.0253 36.8806C48.2728 36.8347 48.5056 36.7508 48.724 36.6286C48.9423 36.4988 49.106 36.3079 49.2152 36.056C49.3243 35.804 49.3789 35.4833 49.3789 35.0939C49.3789 34.3686 49.1861 33.8838 48.8004 33.6394C48.422 33.3875 47.858 33.2615 47.1084 33.2615H45.8312V36.9493H47.1084Z" fill="#1A1A1E"/>
<path d="M60.2699 40.534H59.3748V33.3989L59.5167 32.7232H59.2656L55.4341 40.534H53.6329V32.4598H54.5171V39.5948L54.3752 40.2705H54.6263L58.4687 32.4598H60.2699V40.534Z" fill="#1A1A1E"/>
<path d="M69.4188 40.534L68.4473 37.373H65.358L64.3974 40.534H63.5023L65.9912 32.4598H67.8251L70.303 40.534H69.4188ZM65.6091 36.5713H68.2071L67.0282 32.7232H66.7771L65.6091 36.5713Z" fill="#1A1A1E"/>
<path d="M79.5972 32.4598V40.534H78.7021V33.2615H75.7984C75.7984 33.9105 75.7912 34.4564 75.7766 34.8992C75.7693 35.3421 75.7439 35.8422 75.7002 36.3995C75.6638 36.9493 75.6092 37.4074 75.5365 37.7739C75.471 38.1403 75.3727 38.5145 75.2417 38.8962C75.118 39.2703 74.9652 39.5681 74.7833 39.7895C74.6086 40.0033 74.3866 40.1827 74.1174 40.3278C73.8554 40.4652 73.557 40.534 73.2223 40.534V39.7323C73.4915 39.7323 73.7244 39.6559 73.9209 39.5032C74.1247 39.3429 74.2848 39.0757 74.4012 38.7015C74.5249 38.3198 74.6232 37.9609 74.6959 37.625C74.7687 37.289 74.816 36.7889 74.8378 36.1247C74.867 35.4604 74.8851 34.926 74.8924 34.5213C74.8997 34.109 74.9033 33.4906 74.9033 32.666C74.9033 32.5743 74.9033 32.5056 74.9033 32.4598H79.5972Z" fill="#1A1A1E"/>
<path d="M84.1461 32.4598V35.4719H85.587C86.5767 35.4719 87.3226 35.6589 87.8248 36.0331C88.3342 36.4072 88.5889 37.0676 88.5889 38.0144C88.5889 38.9535 88.3342 39.6101 87.8248 39.9842C87.3226 40.3507 86.5767 40.534 85.587 40.534H83.2509V32.4598H84.1461ZM89.6587 32.4598H90.5538V40.534H89.6587V32.4598ZM84.1461 39.7323H85.587C86.3293 39.7323 86.8642 39.6177 87.1916 39.3887C87.5264 39.1596 87.6938 38.7015 87.6938 38.0144C87.6938 37.3196 87.5264 36.8576 87.1916 36.6286C86.8642 36.3919 86.3293 36.2736 85.587 36.2736H84.1461V39.7323Z" fill="#1A1A1E"/>
<path d="M106.147 39.7323H106.867V42.0457H105.972V40.534H100.602V42.0457H99.7064V39.7323H100.427C100.776 38.8237 101.024 37.812 101.169 36.6973C101.315 35.5749 101.387 34.1625 101.387 32.4598H106.147V39.7323ZM101.322 39.7323H105.252V33.2615H102.272C102.25 34.7351 102.166 35.9758 102.021 36.9836C101.875 37.9838 101.642 38.9 101.322 39.7323Z" fill="#1A1A1E"/>
<path d="M116.142 32.4598V40.534H115.247V33.2615H112.344C112.344 33.9105 112.336 34.4564 112.322 34.8992C112.315 35.3421 112.289 35.8422 112.245 36.3995C112.209 36.9493 112.154 37.4074 112.082 37.7739C112.016 38.1403 111.918 38.5145 111.787 38.8962C111.663 39.2703 111.51 39.5681 111.329 39.7895C111.154 40.0033 110.932 40.1827 110.663 40.3278C110.401 40.4652 110.102 40.534 109.768 40.534V39.7323C110.037 39.7323 110.27 39.6559 110.466 39.5032C110.67 39.3429 110.83 39.0757 110.946 38.7015C111.07 38.3198 111.168 37.9609 111.241 37.625C111.314 37.289 111.361 36.7889 111.383 36.1247C111.412 35.4604 111.43 34.926 111.438 34.5213C111.445 34.109 111.449 33.4906 111.449 32.666C111.449 32.5743 111.449 32.5056 111.449 32.4598H116.142Z" fill="#1A1A1E"/>
<path d="M125.262 32.4598V40.534H124.367V36.8347H122.719L121.583 40.0759C121.467 40.3813 121.205 40.534 120.797 40.534H119.487V39.7323H120.819L121.834 36.7775C121.187 36.6859 120.699 36.4759 120.372 36.1476C120.044 35.8116 119.88 35.3077 119.88 34.6358C119.88 33.8189 120.128 33.2539 120.623 32.9408C121.118 32.6202 121.856 32.4598 122.839 32.4598H125.262ZM124.367 36.0331V33.2615H122.806C122.522 33.2615 122.286 33.2691 122.096 33.2844C121.907 33.2997 121.722 33.3379 121.54 33.3989C121.358 33.4524 121.216 33.5287 121.114 33.628C121.012 33.7196 120.928 33.8494 120.863 34.0174C120.805 34.1854 120.776 34.3915 120.776 34.6358C120.776 35.2085 120.936 35.5864 121.256 35.7696C121.576 35.9453 122.093 36.0331 122.806 36.0331H124.367Z" fill="#1A1A1E"/>
<path d="M135.706 39.4803C135.059 38.6939 134.735 37.6975 134.735 36.4912C134.735 35.2848 135.059 34.2922 135.706 33.5135C136.354 32.7347 137.231 32.3453 138.337 32.3453C139.312 32.3453 140.106 32.6354 140.717 33.2157C141.336 33.7883 141.703 34.5747 141.819 35.5749H140.924C140.837 34.7962 140.571 34.1968 140.127 33.7769C139.684 33.3569 139.087 33.147 138.337 33.147C137.464 33.147 136.794 33.4524 136.329 34.0632C135.863 34.674 135.63 35.4833 135.63 36.4912C135.63 37.5066 135.863 38.3198 136.329 38.9306C136.794 39.5414 137.464 39.8468 138.337 39.8468C139.087 39.8468 139.684 39.6368 140.127 39.2169C140.571 38.7893 140.837 38.1862 140.924 37.4074H141.819C141.703 38.4152 141.336 39.2093 140.717 39.7895C140.106 40.3622 139.312 40.6485 138.337 40.6485C137.231 40.6485 136.354 40.2591 135.706 39.4803Z" fill="#1A1A1E"/>
<path d="M150.363 32.4598V33.2615H147.7V40.534H146.815V33.2615H144.13V32.4598H150.363Z" fill="#1A1A1E"/>
<path d="M155.774 32.4598C156.829 32.4598 157.622 32.6507 158.154 33.0325C158.685 33.4142 158.95 34.1014 158.95 35.0939C158.95 36.0941 158.685 36.7889 158.154 37.1783C157.622 37.5601 156.829 37.751 155.774 37.751H154.508V40.534H153.612V32.4598H155.774ZM155.785 36.9493C156.149 36.9493 156.454 36.9264 156.702 36.8806C156.949 36.8347 157.182 36.7508 157.4 36.6286C157.619 36.4988 157.782 36.3079 157.892 36.056C158.001 35.804 158.055 35.4833 158.055 35.0939C158.055 34.3686 157.862 33.8838 157.477 33.6394C157.098 33.3875 156.534 33.2615 155.785 33.2615H154.508V36.9493H155.785Z" fill="#1A1A1E"/>
<path d="M162.072 36.4912C162.072 35.2848 162.396 34.2922 163.043 33.5135C163.691 32.7347 164.568 32.3453 165.674 32.3453C166.773 32.3453 167.643 32.7347 168.283 33.5135C168.931 34.2922 169.255 35.2848 169.255 36.4912C169.255 37.7051 168.931 38.7015 168.283 39.4803C167.643 40.2591 166.773 40.6485 165.674 40.6485C164.568 40.6485 163.691 40.2591 163.043 39.4803C162.396 38.7015 162.072 37.7051 162.072 36.4912ZM162.967 36.4912C162.967 37.499 163.196 38.3121 163.655 38.9306C164.12 39.5414 164.794 39.8468 165.674 39.8468C166.547 39.8468 167.213 39.5414 167.672 38.9306C168.13 38.3121 168.36 37.499 168.36 36.4912C168.36 35.491 168.13 34.6855 167.672 34.0746C167.213 33.4562 166.547 33.147 165.674 33.147C164.794 33.147 164.12 33.4562 163.655 34.0746C163.196 34.6855 162.967 35.491 162.967 36.4912Z" fill="#1A1A1E"/>
<path d="M179.359 40.534H178.464V33.3989L178.606 32.7232H178.355L174.523 40.534H172.722V32.4598H173.606V39.5948L173.464 40.2705H173.715L177.558 32.4598H179.359V40.534Z" fill="#1A1A1E"/>
<path d="M188.827 32.4598V33.2615H186.164V40.534H185.279V33.2615H182.594V32.4598H188.827Z" fill="#1A1A1E"/>
<path d="M192.077 40.534V32.4598H196.847V33.2615H192.972V36.0903H196.301V36.892H192.972V39.7323H196.847V40.534H192.077Z" fill="#1A1A1E"/>
<path d="M206.349 32.4598V40.534H205.454V33.2615H202.55C202.55 33.9105 202.543 34.4564 202.528 34.8992C202.521 35.3421 202.496 35.8422 202.452 36.3995C202.416 36.9493 202.361 37.4074 202.288 37.7739C202.223 38.1403 202.124 38.5145 201.993 38.8962C201.87 39.2703 201.717 39.5681 201.535 39.7895C201.36 40.0033 201.138 40.1827 200.869 40.3278C200.607 40.4652 200.309 40.534 199.974 40.534V39.7323C200.243 39.7323 200.476 39.6559 200.673 39.5032C200.876 39.3429 201.036 39.0757 201.153 38.7015C201.277 38.3198 201.375 37.9609 201.448 37.625C201.52 37.289 201.568 36.7889 201.59 36.1247C201.619 35.4604 201.637 34.926 201.644 34.5213C201.651 34.109 201.655 33.4906 201.655 32.666C201.655 32.5743 201.655 32.5056 201.655 32.4598H206.349Z" fill="#1A1A1E"/>
<path d="M210.898 32.4598V35.4719H212.339C213.328 35.4719 214.074 35.6589 214.576 36.0331C215.086 36.4072 215.341 37.0676 215.341 38.0144C215.341 38.9535 215.086 39.6101 214.576 39.9842C214.074 40.3507 213.328 40.534 212.339 40.534H210.003V32.4598H210.898ZM210.898 39.7323H212.339C213.081 39.7323 213.616 39.6177 213.943 39.3887C214.278 39.1596 214.445 38.7015 214.445 38.0144C214.445 37.3196 214.278 36.8576 213.943 36.6286C213.616 36.3919 213.081 36.2736 212.339 36.2736H210.898V39.7323Z" fill="#1A1A1E"/>
<path d="M219.658 39.4803C219.01 38.6939 218.686 37.6975 218.686 36.4912C218.686 35.2848 219.01 34.2922 219.658 33.5135C220.305 32.7347 221.182 32.3453 222.288 32.3453C223.264 32.3453 224.057 32.6354 224.668 33.2157C225.287 33.7883 225.654 34.5747 225.771 35.5749H224.875C224.788 34.7962 224.522 34.1968 224.079 33.7769C223.635 33.3569 223.038 33.147 222.288 33.147C221.415 33.147 220.746 33.4524 220.28 34.0632C219.814 34.674 219.581 35.4833 219.581 36.4912C219.581 37.5066 219.814 38.3198 220.28 38.9306C220.746 39.5414 221.415 39.8468 222.288 39.8468C223.038 39.8468 223.635 39.6368 224.079 39.2169C224.522 38.7893 224.788 38.1862 224.875 37.4074H225.771C225.654 38.4152 225.287 39.2093 224.668 39.7895C224.057 40.3622 223.264 40.6485 222.288 40.6485C221.182 40.6485 220.305 40.2591 219.658 39.4803Z" fill="#1A1A1E"/>
<path d="M234.314 32.4598V33.2615H231.651V40.534H230.766V33.2615H228.081V32.4598H234.314Z" fill="#1A1A1E"/>
<path d="M237.564 40.534V32.4598H239.605C240.616 32.4598 241.362 32.6011 241.843 32.8836C242.323 33.1661 242.563 33.6853 242.563 34.4411C242.563 34.9832 242.418 35.3955 242.126 35.678C241.835 35.9605 241.468 36.117 241.024 36.1476V36.4224C242.428 36.453 243.131 37.1096 243.131 38.3923C243.131 39.1711 242.872 39.7246 242.356 40.0529C241.839 40.3736 241.086 40.534 240.096 40.534H237.564ZM238.459 35.93H239.638C240.336 35.93 240.849 35.8422 241.177 35.6666C241.504 35.4833 241.668 35.1245 241.668 34.59C241.668 34.3457 241.635 34.1395 241.57 33.9716C241.504 33.8036 241.421 33.6738 241.319 33.5822C241.224 33.4906 241.078 33.4218 240.882 33.376C240.693 33.3226 240.511 33.292 240.336 33.2844C240.162 33.2691 239.929 33.2615 239.638 33.2615H238.459V35.93ZM238.459 39.7323H240.129C240.849 39.7323 241.38 39.633 241.723 39.4345C242.065 39.2284 242.236 38.8275 242.236 38.232C242.236 37.6746 242.061 37.2852 241.712 37.0638C241.362 36.8424 240.835 36.7317 240.129 36.7317H238.459V39.7323Z" fill="#1A1A1E"/>
<path d="M251.932 40.534L250.96 37.373H247.871L246.91 40.534H246.015L248.504 32.4598H250.338L252.816 40.534H251.932ZM248.122 36.5713H250.72L249.541 32.7232H249.29L248.122 36.5713Z" fill="#1A1A1E"/>
<path fill-rule="evenodd" clip-rule="evenodd" d="M16.5808 17.4472H16.6032C16.6028 17.4571 16.6026 17.4664 16.6026 17.4746V17.7952V20.0958C16.6026 20.1015 16.6027 20.1077 16.6029 20.1144H12.2949L10.3184 17.4472H16.5808ZM10.0633 17.1029H12.9174C12.9169 17.0929 12.9166 17.0836 12.9166 17.0756V14.775V14.4544C12.9166 14.4461 12.9169 14.4369 12.9173 14.427H10.2076H8.08032L10.0633 17.1029ZM7.82518 14.0827H8.60779H9.23146C9.23098 14.0727 9.23073 14.0634 9.23073 14.0554V11.7547V11.4341C9.23073 11.4259 9.23094 11.4167 9.23138 11.4068H3.73057H2.2121C2.21257 11.4168 2.21282 11.4261 2.21282 11.4341V13.7348V14.0554C2.2128 14.0636 2.21259 14.0728 2.21216 14.0827H2.23455H5.48674V13.9232C6.04212 13.7139 6.54962 13.4001 7.00924 12.9816L7.82518 14.0827ZM5.48674 14.427H3.73057H0V17.1029H2.23457H5.48674V14.427ZM5.48674 17.4472H3.73057H2.2121C2.21257 17.4573 2.21282 17.4665 2.21282 17.4746V19.7752V20.0958C2.21281 20.1016 2.2127 20.1078 2.21249 20.1144H5.48674V17.4472ZM1.85926 20.1144C1.85902 20.1077 1.8589 20.1015 1.8589 20.0958V17.7952V17.4746C1.8589 17.4664 1.85911 17.4571 1.85954 17.4472H0V20.1144H1.85926ZM0 14.0827H1.85962C1.85914 14.0727 1.8589 14.0634 1.8589 14.0554V11.7547V11.4341C1.8589 11.4259 1.85911 11.4167 1.85954 11.4068H0V14.0827ZM0 11.0625H2.23457H5.54555C5.54507 11.0524 5.54483 11.0432 5.54483 11.0351V8.7345V8.41391C5.54483 8.40569 5.54503 8.39645 5.54547 8.38656H3.73057H0V11.0625ZM0 8.04223H1.85962C1.85914 8.03218 1.8589 8.02293 1.8589 8.01487V5.71425V5.39366C1.8589 5.38544 1.85911 5.3762 1.85954 5.36631H0V8.04223ZM0 5.02199H2.23457H5.48674V2.34608H3.73057H0V5.02199ZM0 2.00176H1.85962C1.85914 1.99172 1.8589 1.98247 1.8589 1.97441V0H0V2.00176ZM2.21282 0V1.65382V1.97441C2.21282 1.98263 2.21261 1.99187 2.21217 2.00176H2.23457H5.48674V0H2.21282ZM5.48674 5.36631H3.73057H2.2121C2.21257 5.37635 2.21282 5.3856 2.21282 5.39366V7.69428V8.01487C2.2128 8.02311 2.21259 8.03235 2.21216 8.04223H2.23455H8.60779H9.23146C9.23098 8.03218 9.23073 8.02293 9.23073 8.01487V5.71425V5.39366C9.23073 5.38544 9.23094 5.3762 9.23138 5.36631H6.96919L5.48674 6.99011V5.36631ZM7.28352 5.02199H8.60779H12.9174C12.9169 5.01195 12.9166 5.0027 12.9166 4.99464V2.69402V2.37343C12.9166 2.36521 12.9169 2.35597 12.9173 2.34608H10.2076H9.72649L7.28352 5.02199ZM10.0408 2.00176H15.0848H16.6033C16.6028 1.99172 16.6026 1.98247 16.6026 1.97441V0H13.8749C12.5534 0 11.4331 0.494538 10.5139 1.48362L10.0408 2.00176ZM16.9565 0V1.65382V1.97441C16.9565 1.98263 16.9563 1.99187 16.9558 2.00176H18.0402V0H16.9565ZM18.0402 2.34608H16.5808H13.2698C13.2703 2.35612 13.2706 2.36537 13.2706 2.37343V4.67405V4.99464C13.2706 5.00286 13.2704 5.0121 13.2699 5.02199H14.3522L14.5643 4.79322H18.0402V2.34608ZM11.553 8.04223L14.0331 5.36631H10.2076H9.58394C9.58441 5.37635 9.58466 5.3856 9.58466 5.39366V7.69428V8.01487C9.58466 8.02309 9.58445 8.03233 9.58401 8.04223H11.553ZM16.9565 17.6307L18.8158 20.1144H16.9562C16.9562 20.1127 16.9563 20.111 16.9563 20.1094C16.9564 20.1046 16.9565 20.1001 16.9565 20.0958V19.7752V17.6307ZM16.5614 17.1029L14.5581 14.427H13.2698C13.2703 14.4371 13.2706 14.4463 13.2706 14.4544V16.755V17.0756C13.2706 17.0838 13.2704 17.093 13.2699 17.1029H15.0848H16.5614ZM11.2339 8.38654L10.5713 9.10141L12.0394 11.0625H8.60779H5.89808C5.89852 11.0526 5.89873 11.0433 5.89873 11.0351V10.7145V8.41389C5.89873 8.40583 5.89848 8.39658 5.89801 8.38654H10.2076H11.2339ZM12.2971 11.4068L14.3004 14.0827H9.58401C9.58445 14.0728 9.58466 14.0635 9.58466 14.0553V13.7347V11.4341C9.58466 11.4261 9.58441 11.4168 9.58394 11.4068H10.2076H12.2971Z" fill="#6EBC48"/>
</svg>
