<svg width="17" height="16" viewBox="0 0 17 16" fill="none" xmlns="http://www.w3.org/2000/svg">
<path d="M14.9525 11.0714C14.9525 11.2321 14.9228 11.442 14.8632 11.7009C14.8037 11.9598 14.7412 12.1637 14.6757 12.3125C14.5507 12.6101 14.1877 12.9256 13.5865 13.2589C13.0269 13.5625 12.4734 13.7143 11.9257 13.7143C11.765 13.7143 11.6088 13.7039 11.457 13.683C11.3052 13.6622 11.1341 13.625 10.9436 13.5714C10.7531 13.5179 10.6118 13.4747 10.5195 13.442C10.4272 13.4092 10.2621 13.3482 10.024 13.2589C9.78586 13.1696 9.64003 13.1161 9.58646 13.0982C9.00313 12.8899 8.48229 12.6429 8.02396 12.3571C7.26206 11.8869 6.47485 11.2455 5.66235 10.433C4.84985 9.62053 4.20848 8.83333 3.73825 8.07143C3.45253 7.61309 3.20551 7.09226 2.99717 6.50893C2.97932 6.45536 2.92575 6.30952 2.83646 6.07143C2.74717 5.83333 2.68616 5.66815 2.65342 5.57589C2.62069 5.48363 2.57753 5.34226 2.52396 5.15178C2.47039 4.96131 2.43319 4.79018 2.41235 4.63839C2.39152 4.48661 2.3811 4.33036 2.3811 4.16964C2.3811 3.62202 2.53289 3.06845 2.83646 2.50893C3.16979 1.90774 3.48527 1.54464 3.78289 1.41964C3.9317 1.35417 4.13557 1.29167 4.3945 1.23214C4.65342 1.17262 4.86325 1.14286 5.02396 1.14286C5.10729 1.14286 5.16979 1.15179 5.21146 1.16964C5.3186 1.20536 5.47634 1.43155 5.68467 1.84821C5.75015 1.96131 5.83944 2.12202 5.95253 2.33036C6.06563 2.53869 6.16979 2.72768 6.26503 2.89732C6.36027 3.06696 6.45253 3.22619 6.54182 3.375C6.55967 3.39881 6.61176 3.47321 6.69807 3.59821C6.78438 3.72321 6.84837 3.82887 6.89003 3.91518C6.9317 4.00149 6.95253 4.08631 6.95253 4.16964C6.95253 4.28869 6.86771 4.4375 6.69807 4.61607C6.52842 4.79464 6.3439 4.95833 6.1445 5.10714C5.94509 5.25595 5.76057 5.41369 5.59092 5.58036C5.42128 5.74702 5.33646 5.88393 5.33646 5.99107C5.33646 6.04464 5.35134 6.11161 5.3811 6.19196C5.41087 6.27232 5.43616 6.33333 5.457 6.375C5.47783 6.41667 5.5195 6.48809 5.582 6.58928C5.6445 6.69048 5.67872 6.74702 5.68467 6.75893C6.13706 7.5744 6.65491 8.27381 7.23825 8.85714C7.82158 9.44048 8.52098 9.95833 9.33646 10.4107C9.34836 10.4167 9.40491 10.4509 9.5061 10.5134C9.60729 10.5759 9.67872 10.6176 9.72039 10.6384C9.76206 10.6592 9.82307 10.6845 9.90342 10.7143C9.98378 10.744 10.0507 10.7589 10.1043 10.7589C10.2115 10.7589 10.3484 10.6741 10.515 10.5045C10.6817 10.3348 10.8394 10.1503 10.9882 9.95089C11.1371 9.75149 11.3007 9.56696 11.4793 9.39732C11.6579 9.22768 11.8067 9.14286 11.9257 9.14286C12.0091 9.14286 12.0939 9.16369 12.1802 9.20536C12.2665 9.24702 12.3722 9.31101 12.4972 9.39732C12.6222 9.48363 12.6966 9.53571 12.7204 9.55357C12.8692 9.64286 13.0284 9.73512 13.1981 9.83036C13.3677 9.92559 13.5567 10.0298 13.765 10.1429C13.9734 10.256 14.1341 10.3452 14.2472 10.4107C14.6638 10.619 14.89 10.7768 14.9257 10.8839C14.9436 10.9256 14.9525 10.9881 14.9525 11.0714Z" fill="white"/>
</svg>
