<svg width="20" height="20" viewBox="0 0 20 20" fill="none" xmlns="http://www.w3.org/2000/svg">
<path d="M15.8636 10.1364C15.793 10.0662 15.7093 10.0107 15.6172 9.97292C15.5251 9.93515 15.4264 9.9159 15.3269 9.91625C15.2273 9.9166 15.1288 9.93655 15.037 9.97497C14.9452 10.0134 14.8618 10.0695 14.7917 10.1402C14.7215 10.2108 14.666 10.2945 14.6282 10.3866C14.5905 10.4787 14.5712 10.5774 14.5716 10.6769C14.5719 10.7765 14.5919 10.875 14.6303 10.9668C14.6687 11.0586 14.7248 11.142 14.7955 11.2121C15.4365 11.8464 15.9453 12.6015 16.2926 13.4337C16.6398 14.2659 16.8184 15.1588 16.8182 16.0606C16.8182 16.9848 14.1591 18.3333 10.0001 18.3333C5.841 18.3333 3.18193 16.9848 3.18193 16.0606C3.18073 15.1647 3.35608 14.2775 3.69794 13.4494C4.03981 12.6214 4.5415 11.8689 5.17434 11.2348C5.31544 11.0929 5.39464 10.9009 5.39464 10.7008C5.39464 10.5006 5.31544 10.3086 5.17434 10.1667C5.0324 10.0256 4.84039 9.94637 4.64026 9.94637C4.44012 9.94637 4.24811 10.0256 4.10617 10.1667C3.32974 10.9388 2.71431 11.8573 2.29557 12.869C1.87683 13.8808 1.66311 14.9656 1.66679 16.0606C1.66679 18.5227 5.96221 19.8484 10.0001 19.8484C14.0379 19.8484 18.3333 18.5227 18.3333 16.0606C18.3362 14.9585 18.1193 13.8669 17.6953 12.8497C17.2712 11.8325 16.6485 10.91 15.8636 10.1364Z" fill="#5B616A"/>
<path d="M10 10.7576C11.0488 10.7576 12.0741 10.4466 12.9462 9.86386C13.8183 9.28116 14.498 8.45294 14.8993 7.48395C15.3007 6.51495 15.4057 5.4487 15.2011 4.42002C14.9965 3.39134 14.4914 2.44644 13.7498 1.70481C13.0081 0.963169 12.0632 0.458109 11.0346 0.253492C10.0059 0.048875 8.93964 0.153892 7.97064 0.555262C7.00165 0.956633 6.17344 1.63633 5.59074 2.5084C5.00804 3.38047 4.69702 4.40575 4.69702 5.45458C4.69702 6.86102 5.25573 8.20986 6.25023 9.20436C7.24473 10.1989 8.59357 10.7576 10 10.7576ZM10 1.66674C10.7492 1.66674 11.4815 1.88889 12.1044 2.3051C12.7273 2.72132 13.2128 3.3129 13.4995 4.00504C13.7862 4.69718 13.8612 5.45878 13.7151 6.19355C13.5689 6.92833 13.2082 7.60326 12.6784 8.133C12.1487 8.66273 11.4738 9.02349 10.739 9.16965C10.0042 9.3158 9.2426 9.24079 8.55046 8.9541C7.85832 8.6674 7.26674 8.18191 6.85053 7.559C6.43431 6.93609 6.21216 6.20375 6.21216 5.45458C6.21216 4.44998 6.61124 3.48653 7.3216 2.77617C8.03195 2.06581 8.99541 1.66674 10 1.66674Z" fill="#5B616A"/>
</svg>
